<?xml version="1.0" encoding="UTF-8" standalone="no"?>
<svg width="193px" height="43px" viewBox="0 0 193 43" version="1.1" xmlns="http://www.w3.org/2000/svg" xmlns:xlink="http://www.w3.org/1999/xlink">
    <!-- Generator: sketchtool 41.2 (35397) - http://www.bohemiancoding.com/sketch -->
    <title>22EB881B-0161-47C0-A8B7-734F1FB2C295</title>
    <desc>Created with sketchtool.</desc>
    <defs>
        <polygon id="path-1" points="42.564 42.94 0 42.94 0 21.677 0 0.414 42.564 0.414"></polygon>
        <polygon id="path-3" points="42.655 42.94 0 42.94 0 21.644 0 0.348 42.655 0.348"></polygon>
    </defs>
    <g id="Design" stroke="none" stroke-width="1" fill="none" fill-rule="evenodd">
        <g id="Landing-page" transform="translate(-40.000000, -40.000000)">
            <g id="Top">
                <g id="Group-2">
                    <g id="hovedlogo" transform="translate(40.000000, 40.000000)">
                        <g id="Group-4">
                            <mask id="mask-2" fill="white">
                                <use xlink:href="#path-1"></use>
                            </mask>
                            <g id="Clip-2"></g>
                            <path d="M1.26,21.674 C1.26,10.616 10.224,1.651 21.283,1.651 C32.341,1.651 41.305,10.616 41.305,21.674 C41.305,32.732 32.341,41.697 21.283,41.697 C10.224,41.697 1.26,32.732 1.26,21.674" id="Fill-1" fill="#FFFFFF" mask="url(#mask-2)"></path>
                            <path d="M21.283,1.651 C10.23,1.651 1.238,10.643 1.238,21.696 C1.238,32.748 10.23,41.741 21.283,41.741 C32.336,41.741 41.326,32.748 41.326,21.696 C41.326,10.643 32.336,1.651 21.283,1.651 L21.283,1.651 Z M21.283,42.978 C9.547,42.978 0,33.432 0,21.696 C0,9.961 9.547,0.414 21.283,0.414 C33.017,0.414 42.564,9.961 42.564,21.696 C42.564,33.432 33.017,42.978 21.283,42.978 L21.283,42.978 Z" id="Fill-3" fill="#00A049" mask="url(#mask-2)"></path>
                        </g>
                        <path d="M33.691,29.599 C33.716,29.564 33.719,29.509 33.682,29.476 L33.359,28.495 L32.767,29.551 C32.593,29.878 32.226,29.643 32.379,29.337 C32.379,29.337 33.142,27.85 33.346,27.298 L34.748,27.939 C34.69,28.134 34.577,28.292 34.478,28.604 L34.671,28.955 C34.687,28.983 34.696,29.013 34.673,29.059 L34.211,30.041 L32.745,30.351 C32.452,30.45 32.399,29.899 32.695,29.826 C32.921,29.773 33.691,29.599 33.691,29.599" id="Fill-5" fill="#00A049"></path>
                        <path d="M33.336,28.727 L32.849,29.597 C32.824,29.644 32.794,29.684 32.761,29.715 C33.053,29.648 33.671,29.508 33.671,29.508 L33.653,29.491 L33.592,29.505 L33.336,28.727 L33.336,28.727 Z M33.382,28.263 L33.77,29.446 C33.814,29.469 33.824,29.575 33.768,29.654 C33.712,29.691 32.943,29.864 32.717,29.918 C32.609,29.944 32.583,30.071 32.593,30.15 C32.595,30.163 32.609,30.269 32.677,30.269 L32.677,30.362 L32.714,30.261 L34.146,29.959 L34.588,29.019 L34.396,28.65 C34.445,28.4 34.504,28.272 34.558,28.158 C34.585,28.099 34.611,28.044 34.632,27.988 L33.397,27.425 C33.155,28.029 32.492,29.322 32.462,29.379 C32.429,29.445 32.427,29.512 32.457,29.56 C32.509,29.643 32.621,29.627 32.684,29.507 L33.382,28.263 L33.382,28.263 Z M32.677,30.456 C32.537,30.456 32.427,30.343 32.407,30.173 C32.391,30.04 32.433,29.891 32.539,29.803 C32.441,29.799 32.352,29.746 32.298,29.659 C32.233,29.553 32.232,29.42 32.295,29.295 C32.303,29.279 33.058,27.806 33.258,27.266 L33.293,27.17 L34.863,27.887 L34.838,27.966 C34.811,28.058 34.771,28.143 34.727,28.238 C34.677,28.345 34.62,28.466 34.567,28.633 L34.753,28.91 C34.766,28.933 34.805,29.003 34.757,29.1 L34.23,30.132 L32.677,30.456 L32.677,30.456 Z" id="Fill-6" fill="#1A1918"></path>
                        <path d="M8.628,29.599 C8.604,29.564 8.602,29.509 8.639,29.476 L8.96,28.495 L9.553,29.551 C9.727,29.878 10.094,29.643 9.941,29.337 C9.941,29.337 9.174,27.838 8.928,27.246 L7.529,27.877 C7.629,28.113 7.729,28.375 7.841,28.604 L7.648,28.955 C7.633,28.983 7.625,29.013 7.646,29.059 L8.107,30.041 L9.576,30.351 C9.868,30.45 9.921,29.899 9.624,29.826 C9.398,29.773 8.628,29.599 8.628,29.599" id="Fill-7" fill="#00A049"></path>
                        <path d="M8.71,29.522 C8.874,29.558 9.325,29.66 9.559,29.715 C9.525,29.683 9.496,29.643 9.47,29.595 L8.982,28.727 L8.71,29.522 L8.71,29.522 Z M8.174,29.959 L9.643,30.269 C9.711,30.269 9.726,30.163 9.727,30.151 C9.736,30.071 9.711,29.944 9.602,29.918 C9.376,29.864 8.607,29.691 8.607,29.691 C8.496,29.575 8.506,29.468 8.577,29.405 L8.938,28.263 L9.635,29.505 C9.701,29.63 9.812,29.643 9.863,29.56 C9.893,29.511 9.891,29.445 9.858,29.378 C9.828,29.321 9.154,28.004 8.88,27.372 L7.651,27.925 L7.701,28.049 C7.773,28.222 7.846,28.401 7.925,28.563 L7.947,28.608 L7.73,29 L8.174,29.959 L8.174,29.959 Z M9.643,30.456 L9.643,30.456 L9.545,30.44 L8.024,30.08 L7.561,29.1 C7.53,29.035 7.531,28.972 7.566,28.91 L7.735,28.602 C7.663,28.447 7.595,28.281 7.528,28.12 L7.407,27.83 L8.978,27.121 L9.016,27.21 C9.256,27.792 10.018,29.279 10.024,29.295 C10.087,29.42 10.086,29.553 10.022,29.659 C9.968,29.746 9.879,29.799 9.781,29.803 C9.887,29.891 9.929,30.04 9.913,30.173 C9.893,30.343 9.784,30.456 9.643,30.456 L9.643,30.456 Z" id="Fill-8" fill="#1A1918"></path>
                        <path d="M11.486,10.87 L12.414,11.363 L12.965,10.935 C13.313,10.781 13.495,11.138 13.311,11.281 C12.779,11.676 12.124,12.258 11.658,12.727 L10.617,11.591 C10.719,11.489 10.856,11.38 10.961,11.281 L11.36,10.883 C11.391,10.853 11.444,10.839 11.486,10.87" id="Fill-9" fill="#00A049"></path>
                        <path d="M10.748,11.596 L11.661,12.591 C12.155,12.103 12.771,11.565 13.255,11.206 C13.305,11.168 13.289,11.11 13.283,11.092 C13.259,11.021 13.151,10.957 13.003,11.021 L12.424,11.475 L11.442,10.954 L11.028,11.347 C10.979,11.393 10.925,11.44 10.87,11.487 C10.829,11.524 10.787,11.56 10.748,11.596 L10.748,11.596 Z M11.656,12.863 L10.486,11.588 L10.55,11.525 C10.609,11.466 10.679,11.405 10.748,11.346 C10.8,11.3 10.852,11.256 10.897,11.213 L11.295,10.817 C11.331,10.78 11.382,10.759 11.433,10.759 L11.541,10.794 L12.403,11.253 L12.908,10.86 C13.206,10.717 13.393,10.835 13.461,11.031 C13.502,11.153 13.466,11.279 13.369,11.354 C12.868,11.729 12.222,12.292 11.726,12.792 L11.656,12.863 L11.656,12.863 Z" id="Fill-10" fill="#1A1918"></path>
                        <path d="M12.414,11.363 L11.486,10.87 C11.444,10.839 11.391,10.853 11.36,10.883 L10.945,11.269 L11.075,10.617 L11.762,10.006 C11.802,9.977 11.834,9.979 11.864,9.988 L12.245,10.111 C12.45,9.957 12.717,9.782 12.931,9.639 L13.743,10.955 L13.311,11.281 C13.495,11.138 13.313,10.781 12.965,10.935 L12.414,11.363" id="Fill-11" fill="#00A049"></path>
                        <path d="M11.433,10.759 L11.541,10.794 L12.403,11.253 L12.908,10.86 C13.206,10.717 13.393,10.835 13.461,11.031 C13.462,11.037 13.464,11.042 13.465,11.046 L13.618,10.931 L12.902,9.771 L12.819,9.827 C12.645,9.942 12.455,10.069 12.301,10.185 L12.263,10.214 L11.835,10.077 L11.137,10.688 L11.083,11.014 L11.298,10.815 C11.331,10.78 11.382,10.759 11.433,10.759 L11.433,10.759 Z M10.796,11.535 L10.982,10.6 L11.726,9.913 L11.827,9.888 L12.227,10.007 C12.375,9.897 12.552,9.779 12.715,9.67 L12.959,9.506 L13.867,10.978 L13.368,11.355 L13.254,11.207 C13.305,11.168 13.289,11.11 13.283,11.092 C13.259,11.021 13.151,10.957 13.003,11.021 L12.424,11.475 L11.442,10.954 L10.796,11.535 L10.796,11.535 Z" id="Fill-12" fill="#1A1918"></path>
                        <path d="M30.882,10.724 L30.532,11.715 L31.038,12.197 C31.242,12.519 30.916,12.752 30.747,12.59 C30.277,12.124 29.623,11.564 29.089,11.173 L30.053,9.965 C30.169,10.05 30.282,10.142 30.396,10.231 L30.851,10.603 C30.886,10.628 30.906,10.68 30.882,10.724" id="Fill-13" fill="#00A049"></path>
                        <path d="M29.223,11.156 C29.747,11.547 30.361,12.076 30.813,12.524 L30.876,12.549 C30.92,12.549 30.966,12.521 30.989,12.477 C31.024,12.414 31.013,12.332 30.96,12.247 L30.423,11.741 L30.794,10.692 L30.229,10.219 C30.176,10.177 30.123,10.136 30.069,10.094 L29.223,11.156 L29.223,11.156 Z M30.876,12.736 C30.804,12.736 30.735,12.709 30.682,12.659 C30.213,12.192 29.567,11.64 29.034,11.25 L28.956,11.19 L30.037,9.835 L30.108,9.889 C30.189,9.949 30.267,10.01 30.346,10.072 L30.91,10.53 C30.984,10.585 31.009,10.686 30.965,10.769 L30.64,11.689 L31.103,12.13 C31.208,12.291 31.222,12.443 31.154,12.567 C31.098,12.67 30.988,12.736 30.876,12.736 L30.876,12.736 Z" id="Fill-14" fill="#1A1918"></path>
                        <path d="M30.532,11.715 L30.882,10.724 C30.906,10.68 30.886,10.628 30.851,10.603 L30.398,10.216 L31.07,10.281 L31.776,10.869 C31.814,10.904 31.816,10.937 31.811,10.969 L31.747,11.362 C31.929,11.542 32.159,11.785 32.333,11.973 L31.144,12.976 L30.747,12.59 C30.916,12.752 31.242,12.519 31.038,12.197 L30.532,11.715" id="Fill-15" fill="#00A049"></path>
                        <path d="M31.003,12.708 L31.148,12.849 L32.198,11.965 C32.035,11.791 31.839,11.586 31.68,11.429 L31.646,11.395 L31.718,10.954 L31.011,10.353 L30.676,10.33 L30.912,10.531 C30.984,10.585 31.009,10.686 30.965,10.769 L30.64,11.689 L31.103,12.13 C31.208,12.291 31.222,12.443 31.154,12.567 C31.119,12.629 31.065,12.679 31.003,12.708 L31.003,12.708 Z M31.14,13.102 L30.682,12.658 L30.811,12.523 C30.919,12.549 30.966,12.521 30.989,12.477 C31.024,12.414 31.013,12.332 30.96,12.247 L30.423,11.741 L30.794,10.692 L30.111,10.095 L31.08,10.188 L31.838,10.796 C31.919,10.875 31.907,10.956 31.904,10.983 L31.847,11.329 C32.024,11.506 32.239,11.732 32.402,11.91 L32.469,11.982 L31.14,13.102 L31.14,13.102 Z" id="Fill-16" fill="#1A1918"></path>
                        <path d="M21.269,8.291 C22.68,8.291 23.822,7.147 23.822,5.737 C23.822,4.328 22.68,3.184 21.269,3.184 C19.858,3.184 18.715,4.328 18.715,5.737 C18.715,7.147 19.858,8.291 21.269,8.291" id="Fill-17" fill="#00A049"></path>
                        <path d="M21.269,3.278 C19.912,3.278 18.809,4.381 18.809,5.737 C18.809,7.094 19.912,8.196 21.269,8.196 C22.625,8.196 23.729,7.094 23.729,5.737 C23.729,4.381 22.625,3.278 21.269,3.278 L21.269,3.278 Z M21.269,8.385 C19.809,8.385 18.622,7.197 18.622,5.737 C18.622,4.277 19.809,3.09 21.269,3.09 C22.728,3.09 23.916,4.277 23.916,5.737 C23.916,7.197 22.728,8.385 21.269,8.385 L21.269,8.385 Z" id="Fill-18" fill="#1A1918"></path>
                        <path d="M37.671,21.969 C39.082,21.969 40.226,20.826 40.226,19.416 C40.226,18.004 39.082,16.862 37.671,16.862 C36.261,16.862 35.118,18.004 35.118,19.416 C35.118,20.826 36.261,21.969 37.671,21.969" id="Fill-19" fill="#00A049"></path>
                        <path d="M37.671,16.956 C36.315,16.956 35.21,18.059 35.21,19.416 C35.21,20.771 36.315,21.875 37.671,21.875 C39.028,21.875 40.131,20.771 40.131,19.416 C40.131,18.059 39.028,16.956 37.671,16.956 L37.671,16.956 Z M37.671,22.063 C36.211,22.063 35.024,20.875 35.024,19.416 C35.024,17.955 36.211,16.768 37.671,16.768 C39.131,16.768 40.319,17.955 40.319,19.416 C40.319,20.875 39.131,22.063 37.671,22.063 L37.671,22.063 Z" id="Fill-20" fill="#1A1918"></path>
                        <path d="M4.893,21.969 C6.303,21.969 7.446,20.826 7.446,19.416 C7.446,18.004 6.303,16.862 4.893,16.862 C3.482,16.862 2.339,18.004 2.339,19.416 C2.339,20.826 3.482,21.969 4.893,21.969" id="Fill-21" fill="#00A049"></path>
                        <path d="M4.893,16.956 C3.536,16.956 2.432,18.059 2.432,19.416 C2.432,20.771 3.536,21.875 4.893,21.875 C6.249,21.875 7.353,20.771 7.353,19.416 C7.353,18.059 6.249,16.956 4.893,16.956 L4.893,16.956 Z M4.893,22.063 C3.433,22.063 2.246,20.875 2.246,19.416 C2.246,17.955 3.433,16.768 4.893,16.768 C6.352,16.768 7.539,17.955 7.539,19.416 C7.539,20.875 6.352,22.063 4.893,22.063 L4.893,22.063 Z" id="Fill-22" fill="#1A1918"></path>
                        <path d="M36.991,22.379 C36.933,24.603 36.414,26.713 35.624,28.303 L34.748,27.939 L33.346,27.298 L32.775,27.023 C33.439,25.708 33.876,23.863 33.876,21.949 C33.876,18.652 32.661,15.689 30.604,13.43 L31.144,12.976 L32.333,11.973 L32.995,11.431 C34.443,13.015 35.389,14.69 36.102,16.764 C34.875,17.602 34.605,18.516 34.605,19.416 C34.608,20.887 35.745,22.154 36.991,22.379" id="Fill-23" fill="#00A049"></path>
                        <path d="M32.902,26.979 L34.788,27.854 L35.579,28.183 C36.364,26.568 36.83,24.541 36.895,22.455 C35.576,22.173 34.516,20.828 34.513,19.416 C34.512,18.646 34.679,17.648 35.99,16.728 C35.272,14.66 34.342,13.06 32.985,11.56 L30.738,13.439 C32.822,15.763 33.969,18.781 33.969,21.949 C33.969,23.764 33.581,25.59 32.902,26.979 L32.902,26.979 Z M35.67,28.423 L34.713,28.025 L32.648,27.066 L32.692,26.98 C33.385,25.606 33.782,23.773 33.782,21.949 C33.782,18.795 32.628,15.792 30.534,13.493 L30.468,13.42 L33.004,11.302 L33.064,11.367 C34.486,12.923 35.45,14.578 36.19,16.734 L36.213,16.802 L36.154,16.841 C34.863,17.724 34.699,18.681 34.7,19.416 C34.702,20.769 35.737,22.058 37.007,22.286 L37.087,22.301 L37.085,22.381 C37.027,24.556 36.539,26.673 35.708,28.345 L35.67,28.423 L35.67,28.423 Z" id="Fill-24" fill="#1A1918"></path>
                        <path d="M24.227,6.409 C26.575,6.87 28.737,7.85 30.588,9.224 L30.053,9.965 L29.089,11.173 L28.687,11.719 C26.565,10.132 24.013,9.233 21.16,9.233 C18.518,9.233 16.064,10.039 14.03,11.419 L13.743,10.955 L12.389,8.761 C14.133,7.599 16.121,6.773 18.258,6.378 C18.605,7.603 19.71,8.81 21.2,8.81 C22.692,8.81 24.043,7.737 24.227,6.409" id="Fill-25" fill="#00A049"></path>
                        <path d="M21.16,9.14 C23.898,9.14 26.491,9.986 28.667,11.588 L29.014,11.118 L29.98,9.906 L30.458,9.245 C28.609,7.889 26.54,6.973 24.304,6.52 C24.063,7.843 22.694,8.903 21.2,8.903 C19.64,8.903 18.559,7.665 18.192,6.485 C16.16,6.872 14.251,7.647 12.517,8.789 L14.059,11.287 C16.164,9.882 18.617,9.14 21.16,9.14 L21.16,9.14 Z M28.706,11.851 L28.63,11.793 C26.472,10.18 23.889,9.328 21.16,9.328 C18.622,9.328 16.175,10.077 14.083,11.496 L14.002,11.552 L12.262,8.732 L12.337,8.683 C14.136,7.484 16.123,6.678 18.241,6.285 L18.325,6.27 L18.349,6.352 C18.67,7.49 19.701,8.715 21.2,8.715 C22.641,8.715 23.957,7.675 24.134,6.396 L24.148,6.298 L24.245,6.316 C26.575,6.774 28.728,7.726 30.645,9.148 L30.718,9.204 L30.129,10.02 L28.706,11.851 L28.706,11.851 Z" id="Fill-26" fill="#1A1918"></path>
                        <path d="M12.017,13.11 L11.658,12.727 L10.617,11.591 L9.898,10.815 C8.286,12.447 7.02,14.434 6.234,16.64 C7.338,17.253 7.959,18.209 7.959,19.498 C7.959,20.785 6.821,22.235 5.33,22.418 C5.391,24.5 5.852,26.479 6.641,28.283 L7.529,27.877 L9.485,26.995 C8.815,25.447 8.444,23.742 8.444,21.949 C8.444,18.514 9.804,15.398 12.017,13.11" id="Fill-27" fill="#00A049"></path>
                        <path d="M5.426,22.5 C5.494,24.462 5.918,26.366 6.688,28.158 L9.363,26.947 C8.691,25.364 8.35,23.682 8.35,21.949 C8.35,18.636 9.606,15.5 11.888,13.11 L9.896,10.951 C8.33,12.556 7.106,14.506 6.349,16.598 C7.464,17.244 8.053,18.245 8.053,19.498 C8.053,20.743 6.978,22.26 5.426,22.5 L5.426,22.5 Z M6.593,28.408 L6.554,28.32 C5.74,26.455 5.296,24.47 5.236,22.421 L5.233,22.335 L5.318,22.325 C6.818,22.141 7.866,20.687 7.866,19.498 C7.866,18.274 7.301,17.34 6.189,16.722 L6.119,16.684 L6.147,16.608 C6.92,14.432 8.194,12.406 9.832,10.748 L9.9,10.679 L12.146,13.111 L12.085,13.176 C9.798,15.539 8.537,18.655 8.537,21.949 C8.537,23.687 8.885,25.374 9.571,26.958 L9.608,27.043 L6.593,28.408 L6.593,28.408 Z" id="Fill-28" fill="#1A1918"></path>
                        <polyline id="Fill-29" fill="#00A049" points="17.727 18.516 17.727 12.059 24.838 12.059 24.838 18.516 31.296 18.516 31.296 25.627 24.838 25.627 24.838 32.085 17.727 32.085 17.727 25.627 11.269 25.627 11.269 18.516 17.727 18.516"></polyline>
                        <path d="M17.821,31.991 L24.744,31.991 L24.744,25.533 L31.202,25.533 L31.202,18.609 L24.744,18.609 L24.744,12.152 L17.821,12.152 L17.821,18.609 L11.363,18.609 L11.363,25.533 L17.821,25.533 L17.821,31.991 L17.821,31.991 Z M24.931,32.178 L17.633,32.178 L17.633,25.72 L11.176,25.72 L11.176,18.422 L17.633,18.422 L17.633,11.964 L24.931,11.964 L24.931,18.422 L31.389,18.422 L31.389,25.72 L24.931,25.72 L24.931,32.178 L24.931,32.178 Z" id="Fill-30" fill="#1A1918"></path>
                        <polyline id="Fill-31" fill="#1A1918" points="8.571 31.392 7.904 33.066 9.13 32.107 9.413 32.469 7.631 33.866 7.351 33.508 8.034 31.821 6.791 32.792 6.506 32.431 8.29 31.033 8.571 31.392"></polyline>
                        <path d="M10.302,34.959 C10.539,34.714 10.688,34.382 10.689,34.078 C10.691,33.807 10.555,33.554 10.35,33.356 C10.144,33.156 9.886,33.03 9.615,33.041 C9.312,33.054 8.985,33.214 8.749,33.46 C8.512,33.706 8.362,34.037 8.36,34.341 C8.359,34.612 8.496,34.864 8.702,35.064 C8.907,35.261 9.165,35.39 9.436,35.378 C9.739,35.366 10.065,35.205 10.302,34.959 L10.302,34.959 Z M8.983,34.771 C8.877,34.667 8.801,34.534 8.793,34.375 C8.781,34.175 8.899,33.946 9.067,33.768 C9.24,33.592 9.463,33.467 9.665,33.472 C9.824,33.476 9.96,33.545 10.066,33.649 C10.173,33.751 10.249,33.885 10.257,34.045 C10.269,34.245 10.151,34.474 9.983,34.651 C9.811,34.826 9.587,34.951 9.386,34.947 C9.227,34.943 9.09,34.872 8.983,34.771 L8.983,34.771 Z" id="Fill-32" fill="#1A1918"></path>
                        <path d="M9.96,36.106 L10.333,36.378 L10.861,35.654 L11.298,35.973 C11.427,36.068 11.472,36.193 11.388,36.318 C11.287,36.448 11.18,36.594 11.119,36.688 C11.08,36.752 11.055,36.818 11.044,36.896 L11.444,37.187 L11.493,37.119 C11.472,37.065 11.46,37.02 11.533,36.917 C11.6,36.823 11.77,36.578 11.815,36.495 C11.916,36.316 11.829,36.183 11.798,36.095 C11.972,36.111 12.095,36.112 12.254,35.986 C12.415,35.86 12.473,35.702 12.506,35.605 C12.599,35.368 12.477,35.15 12.301,35.009 L11.294,34.275 L9.96,36.106 L9.96,36.106 Z M11.438,34.861 L11.943,35.229 C12.11,35.349 12.114,35.469 12.019,35.599 C11.91,35.797 11.686,35.776 11.599,35.711 L11.089,35.34 L11.438,34.861 L11.438,34.861 Z" id="Fill-33" fill="#1A1918"></path>
                        <path d="M13.733,36.673 C13.827,36.514 13.776,36.296 13.5,36.138 C13.306,36.028 13.123,36.016 13.019,36.172 C12.934,36.303 12.965,36.355 13.035,36.439 C13.054,36.512 13.393,36.778 13.46,36.831 C13.558,36.911 13.763,37.086 13.817,37.281 C13.912,37.646 13.548,38.059 13.215,38.087 C12.988,38.103 12.744,38.004 12.524,37.888 C12.424,37.836 12.205,37.67 12.118,37.484 C12.012,37.26 12.034,37.016 12.123,36.821 L12.517,37.038 C12.489,37.089 12.46,37.18 12.489,37.286 C12.527,37.429 12.655,37.539 12.794,37.607 C12.93,37.678 13.079,37.707 13.157,37.686 C13.288,37.652 13.393,37.506 13.349,37.354 C13.294,37.147 12.906,36.935 12.7,36.709 C12.527,36.519 12.437,36.268 12.646,35.964 C12.851,35.666 13.206,35.555 13.685,35.819 C13.791,35.876 14.154,36.085 14.211,36.435 C14.24,36.625 14.165,36.824 14.114,36.881 L13.733,36.673" id="Fill-34" fill="#1A1918"></path>
                        <polyline id="Fill-35" fill="#1A1918" points="14.715 36.405 15.145 36.572 14.782 37.499 15.963 36.893 16.473 37.092 15.289 37.683 15.733 39.234 15.214 39.032 14.899 37.851 14.584 38.008 14.32 38.682 13.892 38.515 14.715 36.405"></polyline>
                        <polyline id="Fill-36" fill="#1A1918" points="19.025 37.666 18.949 38.046 17.857 37.829 17.757 38.335 18.72 38.527 18.643 38.907 17.681 38.716 17.492 39.67 17.04 39.581 17.479 37.358 19.025 37.666"></polyline>
                        <path d="M21.193,38.984 C21.216,38.642 21.117,38.294 20.923,38.059 C20.749,37.851 20.482,37.746 20.198,37.727 C19.912,37.708 19.632,37.775 19.432,37.958 C19.208,38.165 19.063,38.497 19.04,38.838 C19.017,39.178 19.117,39.528 19.311,39.762 C19.485,39.971 19.751,40.075 20.037,40.094 C20.322,40.114 20.601,40.045 20.801,39.863 C21.024,39.657 21.17,39.324 21.193,38.984 L21.193,38.984 Z M20.065,39.688 C19.916,39.678 19.772,39.626 19.664,39.509 C19.525,39.363 19.468,39.112 19.482,38.868 C19.501,38.624 19.592,38.383 19.748,38.257 C19.872,38.156 20.022,38.122 20.17,38.132 C20.316,38.143 20.461,38.196 20.57,38.313 C20.708,38.459 20.766,38.709 20.752,38.954 C20.733,39.198 20.643,39.438 20.485,39.565 C20.361,39.666 20.212,39.698 20.065,39.688 L20.065,39.688 Z" id="Fill-37" fill="#1A1918"></path>
                        <polyline id="Fill-38" fill="#1A1918" points="21.989 37.785 22.1 39.659 23.171 39.596 23.194 39.981 21.663 40.073 21.528 37.813 21.989 37.785"></polyline>
                        <polyline id="Fill-39" fill="#1A1918" points="23.295 37.696 23.748 37.612 23.93 38.59 24.613 37.453 25.151 37.352 24.457 38.479 25.652 39.563 25.104 39.664 24.214 38.829 24.03 39.127 24.162 39.839 23.708 39.922 23.295 37.696"></polyline>
                        <polyline id="Fill-40" fill="#1A1918" points="26.936 36.776 27.057 37.144 25.952 37.503 26.11 37.993 27.131 37.663 27.251 38.032 26.229 38.362 26.411 38.919 27.565 38.544 27.685 38.914 26.091 39.43 25.393 37.275 26.936 36.776"></polyline>
                        <polyline id="Fill-41" fill="#1A1918" points="27.216 36.669 27.632 36.471 27.998 37.24 28.802 36.858 28.435 36.089 28.852 35.89 29.825 37.935 29.409 38.132 28.968 37.208 28.165 37.59 28.605 38.515 28.189 38.713 27.216 36.669"></polyline>
                        <path d="M30.201,35.043 L31.121,36.502 C31.191,36.618 31.229,36.758 31.2,36.922 C31.17,37.109 31.042,37.263 30.893,37.369 C30.744,37.478 30.576,37.539 30.46,37.546 C30.208,37.561 30.017,37.396 29.899,37.226 L29.762,37.01 L30.152,36.763 L30.274,36.958 C30.319,37.029 30.43,37.22 30.646,37.062 C30.796,36.949 30.77,36.811 30.712,36.718 L29.813,35.289 L30.201,35.043" id="Fill-42" fill="#1A1918"></path>
                        <polyline id="Fill-43" fill="#1A1918" points="31.771 33.824 32.013 34.127 31.106 34.853 31.428 35.256 32.266 34.586 32.509 34.888 31.671 35.559 32.035 36.014 32.983 35.256 33.227 35.559 31.917 36.606 30.503 34.838 31.771 33.824"></polyline>
                        <polyline id="Fill-44" fill="#1A1918" points="32.336 33.266 33.671 34.584 34.425 33.819 34.701 34.092 33.623 35.186 32.011 33.595 32.336 33.266"></polyline>
                        <path d="M35.028,33.713 L35.312,33.351 L34.673,32.854 L35.012,32.42 C35.187,32.225 35.237,31.967 35.086,31.668 C35.002,31.511 34.765,31.3 34.546,31.244 C34.162,31.14 33.951,31.411 33.852,31.538 L33.242,32.325 L35.028,33.713 L35.028,33.713 Z M33.831,32.2 L34.134,31.808 C34.205,31.718 34.301,31.634 34.451,31.684 C34.556,31.718 34.653,31.83 34.69,31.893 C34.728,31.962 34.773,32.094 34.685,32.208 L34.368,32.616 L33.831,32.2 L33.831,32.2 Z" id="Fill-45" fill="#1A1918"></path>
                        <g id="Group-49">
                            <mask id="mask-4" fill="white">
                                <use xlink:href="#path-3"></use>
                            </mask>
                            <g id="Clip-47"></g>
                            <path d="M1.262,21.652 C1.262,10.57 10.245,1.587 21.328,1.587 C32.41,1.587 41.394,10.57 41.394,21.652 C41.394,32.734 32.41,41.719 21.328,41.719 C10.245,41.719 1.262,32.734 1.262,21.652" id="Fill-46" fill="#FFFFFF" mask="url(#mask-4)"></path>
                            <path d="M21.328,1.587 C10.251,1.587 1.239,10.598 1.239,21.675 C1.239,32.75 10.251,41.762 21.328,41.762 C32.404,41.762 41.415,32.75 41.415,21.675 C41.415,10.598 32.404,1.587 21.328,1.587 L21.328,1.587 Z M21.328,43 C9.567,43 0,33.434 0,21.675 C0,9.914 9.567,0.348 21.328,0.348 C33.087,0.348 42.655,9.914 42.655,21.675 C42.655,33.434 33.087,43 21.328,43 L21.328,43 Z" id="Fill-48" fill="#00A049" mask="url(#mask-4)"></path>
                        </g>
                        <path d="M33.763,29.594 C33.788,29.56 33.79,29.505 33.753,29.472 L33.431,28.487 L32.837,29.546 C32.661,29.872 32.294,29.638 32.448,29.332 C32.448,29.332 33.212,27.842 33.417,27.288 L34.823,27.93 C34.763,28.126 34.65,28.285 34.552,28.598 L34.745,28.947 C34.761,28.977 34.771,29.007 34.747,29.053 L34.284,30.036 L32.814,30.348 C32.521,30.447 32.468,29.894 32.765,29.821 C32.992,29.768 33.763,29.594 33.763,29.594" id="Fill-50" fill="#00A049"></path>
                        <path d="M33.407,28.721 L32.919,29.593 C32.894,29.638 32.864,29.678 32.831,29.711 C33.124,29.643 33.743,29.503 33.743,29.503 L33.724,29.486 L33.663,29.5 L33.407,28.721 L33.407,28.721 Z M33.452,28.256 L33.843,29.441 C33.886,29.464 33.896,29.569 33.84,29.648 C33.783,29.687 33.013,29.86 32.786,29.913 C32.679,29.939 32.652,30.067 32.662,30.146 C32.663,30.16 32.679,30.265 32.747,30.265 L32.747,30.359 L32.784,30.258 L34.219,29.954 L34.662,29.013 L34.47,28.644 C34.519,28.393 34.577,28.265 34.631,28.15 C34.659,28.091 34.685,28.035 34.706,27.979 L33.469,27.414 C33.226,28.021 32.562,29.316 32.531,29.374 C32.499,29.44 32.497,29.506 32.526,29.556 C32.577,29.638 32.69,29.622 32.753,29.501 L33.452,28.256 L33.452,28.256 Z M32.747,30.453 C32.604,30.453 32.496,30.338 32.476,30.169 C32.46,30.036 32.502,29.887 32.607,29.798 C32.51,29.794 32.421,29.741 32.366,29.654 C32.302,29.549 32.3,29.415 32.364,29.289 C32.372,29.273 33.128,27.797 33.329,27.256 L33.364,27.16 L34.936,27.878 L34.913,27.957 C34.884,28.05 34.845,28.135 34.801,28.23 C34.751,28.338 34.694,28.458 34.642,28.625 L34.827,28.902 C34.84,28.927 34.879,28.997 34.831,29.094 L34.304,30.129 L32.747,30.453 L32.747,30.453 Z" id="Fill-51" fill="#1A1918"></path>
                        <path d="M8.646,29.594 C8.621,29.56 8.619,29.505 8.657,29.472 L8.979,28.487 L9.573,29.546 C9.747,29.872 10.115,29.638 9.962,29.332 C9.962,29.332 9.192,27.83 8.946,27.235 L7.545,27.867 C7.646,28.105 7.745,28.367 7.856,28.598 L7.665,28.947 C7.649,28.977 7.64,29.007 7.663,29.053 L8.125,30.036 L9.595,30.348 C9.889,30.447 9.941,29.894 9.645,29.821 C9.417,29.768 8.646,29.594 8.646,29.594" id="Fill-52" fill="#00A049"></path>
                        <path d="M8.728,29.517 C8.893,29.554 9.344,29.656 9.579,29.711 C9.546,29.678 9.516,29.638 9.49,29.59 L9.001,28.721 L8.728,29.517 L8.728,29.517 Z M8.19,29.954 L9.663,30.265 C9.731,30.265 9.745,30.16 9.747,30.149 C9.757,30.067 9.731,29.939 9.622,29.913 C9.396,29.86 8.626,29.687 8.626,29.687 C8.513,29.569 8.524,29.463 8.595,29.4 L8.956,28.256 L9.655,29.5 C9.722,29.625 9.833,29.637 9.883,29.556 C9.913,29.506 9.911,29.44 9.878,29.372 C9.849,29.316 9.173,27.996 8.898,27.361 L7.667,27.916 L7.718,28.04 C7.788,28.215 7.862,28.394 7.942,28.557 L7.964,28.602 L7.747,28.994 L8.19,29.954 L8.19,29.954 Z M9.663,30.453 L9.663,30.453 L9.565,30.436 L8.04,30.076 L7.577,29.094 C7.546,29.028 7.548,28.967 7.583,28.902 L7.751,28.594 C7.679,28.441 7.61,28.274 7.544,28.111 L7.423,27.82 L8.997,27.109 L9.034,27.2 C9.275,27.783 10.038,29.273 10.046,29.289 C10.109,29.415 10.108,29.549 10.044,29.652 C9.989,29.741 9.899,29.794 9.802,29.798 C9.907,29.887 9.95,30.036 9.934,30.169 C9.913,30.338 9.804,30.453 9.663,30.453 L9.663,30.453 Z" id="Fill-53" fill="#1A1918"></path>
                        <path d="M11.51,10.825 L12.439,11.32 L12.992,10.89 C13.341,10.736 13.523,11.094 13.34,11.236 C12.807,11.633 12.15,12.215 11.683,12.686 L10.639,11.547 C10.741,11.445 10.88,11.336 10.984,11.236 L11.385,10.838 C11.415,10.809 11.468,10.795 11.51,10.825" id="Fill-54" fill="#00A049"></path>
                        <path d="M10.771,11.553 L11.685,12.55 C12.18,12.061 12.798,11.521 13.284,11.161 C13.333,11.123 13.317,11.065 13.311,11.048 C13.286,10.978 13.178,10.912 13.03,10.977 L12.449,11.432 L11.466,10.908 L11.051,11.303 C11.001,11.35 10.948,11.396 10.894,11.443 C10.852,11.48 10.81,11.517 10.771,11.553 L10.771,11.553 Z M11.68,12.822 L10.509,11.545 L10.573,11.481 C10.631,11.422 10.701,11.361 10.771,11.302 C10.823,11.257 10.874,11.211 10.92,11.168 L11.318,10.771 C11.355,10.734 11.406,10.713 11.457,10.713 L11.565,10.75 L12.43,11.208 L12.935,10.816 C13.233,10.672 13.421,10.789 13.489,10.986 C13.53,11.108 13.495,11.234 13.397,11.311 C12.895,11.686 12.248,12.25 11.749,12.752 L11.68,12.822 L11.68,12.822 Z" id="Fill-55" fill="#1A1918"></path>
                        <path d="M12.439,11.32 L11.51,10.825 C11.468,10.795 11.415,10.809 11.385,10.838 L10.968,11.225 L11.099,10.572 L11.786,9.959 C11.826,9.929 11.859,9.931 11.89,9.941 L12.271,10.064 C12.476,9.909 12.744,9.735 12.958,9.592 L13.771,10.91 L13.34,11.236 C13.523,11.094 13.341,10.736 12.992,10.89 L12.439,11.32" id="Fill-56" fill="#00A049"></path>
                        <path d="M11.457,10.713 L11.565,10.75 L12.43,11.208 L12.935,10.816 C13.233,10.672 13.421,10.789 13.489,10.986 C13.491,10.992 13.493,10.997 13.494,11.002 L13.647,10.887 L12.929,9.724 L12.846,9.779 C12.671,9.897 12.481,10.022 12.327,10.139 L12.288,10.168 L11.861,10.03 L11.16,10.643 L11.106,10.969 L11.321,10.77 C11.355,10.734 11.406,10.713 11.457,10.713 L11.457,10.713 Z M10.818,11.492 L11.006,10.555 L11.749,9.865 L11.852,9.84 L12.252,9.961 C12.401,9.85 12.578,9.732 12.741,9.623 L12.985,9.459 L13.896,10.934 L13.396,11.312 L13.282,11.162 C13.333,11.123 13.317,11.065 13.311,11.048 C13.286,10.978 13.178,10.912 13.03,10.977 L12.449,11.432 L11.466,10.908 L10.818,11.492 L10.818,11.492 Z" id="Fill-57" fill="#1A1918"></path>
                        <path d="M30.948,10.678 L30.597,11.672 L31.104,12.155 C31.308,12.477 30.981,12.711 30.812,12.55 C30.341,12.082 29.687,11.521 29.151,11.129 L30.116,9.918 C30.233,10.004 30.347,10.096 30.46,10.184 L30.917,10.557 C30.951,10.583 30.972,10.634 30.948,10.678" id="Fill-58" fill="#00A049"></path>
                        <path d="M29.285,11.111 C29.81,11.503 30.427,12.034 30.878,12.482 L30.942,12.508 C30.985,12.508 31.031,12.479 31.056,12.436 C31.089,12.372 31.079,12.291 31.024,12.205 L30.487,11.698 L30.858,10.647 L30.294,10.173 C30.241,10.131 30.187,10.09 30.134,10.048 L29.285,11.111 L29.285,11.111 Z M30.942,12.695 C30.87,12.695 30.8,12.668 30.747,12.617 C30.277,12.15 29.63,11.597 29.096,11.205 L29.017,11.146 L30.101,9.789 L30.173,9.842 C30.253,9.901 30.331,9.963 30.41,10.025 L30.976,10.484 C31.05,10.539 31.075,10.641 31.03,10.724 L30.706,11.646 L31.169,12.088 C31.274,12.249 31.288,12.401 31.22,12.525 C31.163,12.629 31.054,12.695 30.942,12.695 L30.942,12.695 Z" id="Fill-59" fill="#1A1918"></path>
                        <path d="M30.597,11.672 L30.948,10.678 C30.972,10.634 30.951,10.583 30.917,10.557 L30.463,10.17 L31.137,10.234 L31.845,10.824 C31.882,10.859 31.883,10.892 31.878,10.924 L31.813,11.318 C31.997,11.499 32.228,11.742 32.401,11.932 L31.21,12.935 L30.812,12.55 C30.981,12.711 31.308,12.477 31.104,12.155 L30.597,11.672" id="Fill-60" fill="#00A049"></path>
                        <path d="M31.069,12.668 L31.215,12.809 L32.267,11.924 C32.104,11.748 31.907,11.543 31.748,11.386 L31.714,11.352 L31.786,10.908 L31.077,10.307 L30.741,10.283 L30.977,10.486 C31.05,10.539 31.075,10.641 31.03,10.724 L30.706,11.646 L31.169,12.088 C31.274,12.249 31.288,12.401 31.22,12.525 C31.186,12.589 31.132,12.639 31.069,12.668 L31.069,12.668 Z M31.206,13.062 L30.747,12.617 L30.878,12.482 C30.985,12.508 31.031,12.479 31.056,12.436 C31.089,12.372 31.079,12.291 31.024,12.205 L30.487,11.698 L30.858,10.647 L30.175,10.049 L31.146,10.141 L31.905,10.752 C31.987,10.831 31.976,10.912 31.972,10.938 L31.914,11.286 C32.093,11.463 32.308,11.689 32.472,11.867 L32.538,11.939 L31.206,13.062 L31.206,13.062 Z" id="Fill-61" fill="#1A1918"></path>
                        <path d="M21.313,8.24 C22.728,8.24 23.873,7.096 23.873,5.682 C23.873,4.269 22.728,3.123 21.313,3.123 C19.9,3.123 18.755,4.269 18.755,5.682 C18.755,7.096 19.9,8.24 21.313,8.24" id="Fill-62" fill="#00A049"></path>
                        <path d="M21.313,3.217 C19.954,3.217 18.849,4.322 18.849,5.682 C18.849,7.04 19.954,8.147 21.313,8.147 C22.673,8.147 23.778,7.04 23.778,5.682 C23.778,4.322 22.673,3.217 21.313,3.217 L21.313,3.217 Z M21.313,8.334 C19.851,8.334 18.661,7.145 18.661,5.682 C18.661,4.219 19.851,3.029 21.313,3.029 C22.776,3.029 23.967,4.219 23.967,5.682 C23.967,7.145 22.776,8.334 21.313,8.334 L21.313,8.334 Z" id="Fill-63" fill="#1A1918"></path>
                        <path d="M37.751,21.947 C39.165,21.947 40.311,20.802 40.311,19.389 C40.311,17.976 39.165,16.829 37.751,16.829 C36.339,16.829 35.192,17.976 35.192,19.389 C35.192,20.802 36.339,21.947 37.751,21.947" id="Fill-64" fill="#00A049"></path>
                        <path d="M37.751,16.923 C36.392,16.923 35.286,18.029 35.286,19.389 C35.286,20.748 36.392,21.854 37.751,21.854 C39.111,21.854 40.217,20.748 40.217,19.389 C40.217,18.029 39.111,16.923 37.751,16.923 L37.751,16.923 Z M37.751,22.041 C36.289,22.041 35.099,20.852 35.099,19.389 C35.099,17.926 36.289,16.734 37.751,16.734 C39.214,16.734 40.405,17.926 40.405,19.389 C40.405,20.852 39.214,22.041 37.751,22.041 L37.751,22.041 Z" id="Fill-65" fill="#1A1918"></path>
                        <path d="M4.902,21.947 C6.316,21.947 7.462,20.802 7.462,19.389 C7.462,17.976 6.316,16.829 4.902,16.829 C3.489,16.829 2.344,17.976 2.344,19.389 C2.344,20.802 3.489,21.947 4.902,21.947" id="Fill-66" fill="#00A049"></path>
                        <path d="M4.902,16.923 C3.544,16.923 2.438,18.029 2.438,19.389 C2.438,20.748 3.544,21.854 4.902,21.854 C6.262,21.854 7.368,20.748 7.368,19.389 C7.368,18.029 6.262,16.923 4.902,16.923 L4.902,16.923 Z M4.902,22.041 C3.439,22.041 2.249,20.852 2.249,19.389 C2.249,17.926 3.439,16.734 4.902,16.734 C6.365,16.734 7.556,17.926 7.556,19.389 C7.556,20.852 6.365,22.041 4.902,22.041 L4.902,22.041 Z" id="Fill-67" fill="#1A1918"></path>
                        <path d="M37.069,22.358 C37.011,24.587 36.491,26.701 35.7,28.295 L34.823,27.93 L33.417,27.288 L32.846,27.012 C33.511,25.693 33.947,23.846 33.947,21.927 C33.947,18.624 32.73,15.654 30.669,13.391 L31.21,12.935 L32.401,11.932 L33.065,11.387 C34.517,12.975 35.465,14.654 36.178,16.733 C34.949,17.572 34.679,18.488 34.679,19.389 C34.683,20.863 35.82,22.133 37.069,22.358" id="Fill-68" fill="#00A049"></path>
                        <path d="M32.972,26.969 L34.862,27.845 L35.654,28.175 C36.44,26.557 36.908,24.525 36.974,22.435 C35.651,22.151 34.589,20.805 34.586,19.389 C34.585,18.618 34.753,17.619 36.066,16.695 C35.347,14.623 34.415,13.02 33.056,11.517 L30.804,13.399 C32.892,15.729 34.041,18.754 34.041,21.927 C34.041,23.746 33.652,25.576 32.972,26.969 L32.972,26.969 Z M35.745,28.416 L34.787,28.016 L32.719,27.055 L32.762,26.969 C33.456,25.592 33.854,23.755 33.854,21.927 C33.854,18.768 32.698,15.758 30.599,13.453 L30.532,13.381 L33.074,11.258 L33.134,11.324 C34.56,12.883 35.525,14.541 36.267,16.701 L36.29,16.769 L36.231,16.809 C34.937,17.694 34.772,18.652 34.774,19.389 C34.776,20.746 35.813,22.035 37.085,22.266 L37.165,22.28 L37.163,22.359 C37.106,24.54 36.616,26.661 35.784,28.338 L35.745,28.416 L35.745,28.416 Z" id="Fill-69" fill="#1A1918"></path>
                        <path d="M24.278,6.355 C26.632,6.816 28.798,7.799 30.653,9.175 L30.116,9.918 L29.151,11.129 L28.747,11.676 C26.622,10.086 24.063,9.186 21.204,9.186 C18.558,9.186 16.099,9.992 14.06,11.375 L13.771,10.91 L12.958,9.592 L12.415,8.711 C14.163,7.547 16.154,6.719 18.297,6.323 C18.645,7.551 19.751,8.76 21.245,8.76 C22.74,8.76 24.094,7.686 24.278,6.355" id="Fill-70" fill="#00A049"></path>
                        <path d="M21.204,9.092 C23.948,9.092 26.548,9.939 28.728,11.545 L29.075,11.072 L30.044,9.859 L30.522,9.195 C28.671,7.838 26.597,6.92 24.356,6.465 C24.114,7.792 22.742,8.854 21.245,8.854 C19.682,8.854 18.599,7.613 18.23,6.432 C16.193,6.818 14.281,7.596 12.543,8.74 L14.089,11.242 C16.198,9.835 18.656,9.092 21.204,9.092 L21.204,9.092 Z M28.767,11.808 L28.69,11.751 C26.528,10.134 23.939,9.279 21.204,9.279 C18.661,9.279 16.209,10.03 14.112,11.453 L14.032,11.508 L12.287,8.684 L12.362,8.633 C14.166,7.432 16.156,6.623 18.279,6.231 L18.364,6.215 L18.387,6.298 C18.711,7.438 19.743,8.666 21.245,8.666 C22.688,8.666 24.007,7.623 24.185,6.342 L24.199,6.243 L24.296,6.262 C26.632,6.721 28.79,7.675 30.71,9.1 L30.784,9.155 L30.192,9.973 L28.767,11.808 L28.767,11.808 Z" id="Fill-71" fill="#1A1918"></path>
                        <path d="M12.042,13.07 L11.683,12.686 L10.639,11.547 L9.919,10.77 C8.303,12.405 7.034,14.396 6.247,16.607 C7.353,17.223 7.976,18.18 7.976,19.471 C7.976,20.76 6.835,22.215 5.341,22.399 C5.401,24.482 5.864,26.468 6.654,28.275 L7.545,27.867 L8.946,27.235 L9.505,26.984 C8.833,25.434 8.462,23.725 8.462,21.927 C8.462,18.485 9.824,15.362 12.042,13.07" id="Fill-72" fill="#00A049"></path>
                        <path d="M5.437,22.479 C5.505,24.446 5.931,26.354 6.702,28.15 L9.382,26.937 C8.709,25.35 8.368,23.664 8.368,21.927 C8.368,18.608 9.626,15.465 11.913,13.069 L9.917,10.906 C8.347,12.515 7.12,14.469 6.362,16.565 C7.479,17.213 8.069,18.216 8.069,19.471 C8.069,20.72 6.992,22.239 5.437,22.479 L5.437,22.479 Z M6.606,28.4 L6.567,28.312 C5.751,26.441 5.307,24.453 5.247,22.4 L5.243,22.315 L5.329,22.305 C6.834,22.119 7.882,20.664 7.882,19.471 C7.882,18.245 7.316,17.309 6.202,16.69 L6.132,16.652 L6.159,16.576 C6.935,14.396 8.212,12.363 9.853,10.703 L9.921,10.633 L12.172,13.07 L12.11,13.135 C9.817,15.505 8.556,18.628 8.556,21.927 C8.556,23.67 8.903,25.359 9.591,26.947 L9.628,27.033 L6.606,28.4 L6.606,28.4 Z" id="Fill-73" fill="#1A1918"></path>
                        <polyline id="Fill-74" fill="#00A049" points="17.765 18.488 17.765 12.016 24.892 12.016 24.892 18.488 31.362 18.488 31.362 25.613 24.892 25.613 24.892 32.086 17.765 32.086 17.765 25.613 11.293 25.613 11.293 18.488 17.765 18.488"></polyline>
                        <path d="M17.858,31.991 L24.797,31.991 L24.797,25.52 L31.269,25.52 L31.269,18.582 L24.797,18.582 L24.797,12.11 L17.858,12.11 L17.858,18.582 L11.387,18.582 L11.387,25.52 L17.858,25.52 L17.858,31.991 L17.858,31.991 Z M24.985,32.18 L17.671,32.18 L17.671,25.707 L11.198,25.707 L11.198,18.395 L17.671,18.395 L17.671,11.922 L24.985,11.922 L24.985,18.395 L31.456,18.395 L31.456,25.707 L24.985,25.707 L24.985,32.18 L24.985,32.18 Z" id="Fill-75" fill="#1A1918"></path>
                        <polyline id="Fill-76" fill="#1A1918" points="8.588 31.391 7.921 33.068 9.149 32.107 9.433 32.471 7.647 33.869 7.365 33.512 8.05 31.819 6.806 32.795 6.521 32.432 8.307 31.032 8.588 31.391"></polyline>
                        <path d="M10.323,34.965 C10.562,34.719 10.71,34.387 10.713,34.082 C10.714,33.811 10.577,33.557 10.37,33.358 C10.165,33.158 9.907,33.031 9.636,33.041 C9.331,33.055 9.005,33.217 8.767,33.461 C8.528,33.709 8.38,34.041 8.378,34.346 C8.376,34.617 8.513,34.869 8.72,35.07 C8.926,35.268 9.185,35.397 9.455,35.385 C9.76,35.371 10.086,35.211 10.323,34.965 L10.323,34.965 Z M9.003,34.777 C8.896,34.672 8.819,34.539 8.812,34.379 C8.8,34.178 8.918,33.949 9.086,33.77 C9.26,33.596 9.483,33.469 9.685,33.473 C9.844,33.479 9.981,33.549 10.088,33.65 C10.194,33.754 10.271,33.889 10.278,34.049 C10.29,34.248 10.173,34.479 10.004,34.656 C9.831,34.832 9.607,34.957 9.405,34.953 C9.246,34.949 9.108,34.879 9.003,34.777 L9.003,34.777 Z" id="Fill-77" fill="#1A1918"></path>
                        <path d="M9.981,36.115 L10.355,36.387 L10.884,35.662 L11.321,35.981 C11.45,36.076 11.497,36.201 11.412,36.328 C11.31,36.457 11.204,36.604 11.143,36.697 C11.104,36.762 11.077,36.828 11.067,36.906 L11.468,37.199 L11.519,37.129 C11.497,37.074 11.483,37.031 11.558,36.928 C11.624,36.832 11.794,36.588 11.84,36.504 C11.94,36.324 11.854,36.192 11.823,36.104 C11.999,36.119 12.12,36.121 12.28,35.994 C12.44,35.869 12.499,35.709 12.532,35.613 C12.624,35.375 12.503,35.156 12.327,35.016 L11.317,34.279 L9.981,36.115 L9.981,36.115 Z M11.463,34.867 L11.968,35.236 C12.136,35.356 12.14,35.477 12.045,35.606 C11.935,35.803 11.71,35.783 11.623,35.719 L11.112,35.348 L11.463,34.867 L11.463,34.867 Z" id="Fill-78" fill="#1A1918"></path>
                        <path d="M13.763,36.684 C13.855,36.525 13.806,36.305 13.528,36.147 C13.333,36.035 13.149,36.024 13.046,36.18 C12.961,36.311 12.991,36.365 13.062,36.447 C13.081,36.522 13.421,36.787 13.489,36.842 C13.587,36.92 13.792,37.098 13.847,37.293 C13.94,37.658 13.577,38.072 13.243,38.098 C13.016,38.115 12.771,38.018 12.55,37.9 C12.449,37.85 12.231,37.684 12.144,37.496 C12.038,37.272 12.06,37.027 12.148,36.83 L12.544,37.049 C12.515,37.1 12.485,37.191 12.515,37.297 C12.553,37.44 12.683,37.551 12.821,37.617 C12.957,37.69 13.106,37.721 13.185,37.697 C13.316,37.664 13.421,37.518 13.377,37.365 C13.322,37.158 12.933,36.945 12.727,36.721 C12.554,36.529 12.462,36.275 12.673,35.973 C12.878,35.672 13.233,35.563 13.714,35.828 C13.82,35.885 14.184,36.092 14.241,36.443 C14.271,36.635 14.195,36.834 14.144,36.891 L13.763,36.684" id="Fill-79" fill="#1A1918"></path>
                        <polyline id="Fill-80" fill="#1A1918" points="14.746 36.414 15.176 36.582 14.813 37.51 15.997 36.904 16.507 37.104 15.321 37.695 15.767 39.248 15.246 39.047 14.931 37.863 14.614 38.02 14.351 38.695 13.921 38.529 14.746 36.414"></polyline>
                        <polyline id="Fill-81" fill="#1A1918" points="19.064 37.676 18.989 38.059 17.896 37.842 17.794 38.348 18.759 38.539 18.683 38.922 17.719 38.731 17.528 39.686 17.075 39.598 17.517 37.369 19.064 37.676"></polyline>
                        <path d="M21.237,38.998 C21.261,38.656 21.161,38.307 20.968,38.072 C20.794,37.863 20.526,37.758 20.239,37.738 C19.954,37.721 19.674,37.787 19.474,37.971 C19.249,38.178 19.103,38.51 19.08,38.852 C19.057,39.193 19.157,39.543 19.351,39.779 C19.526,39.986 19.794,40.092 20.079,40.111 C20.366,40.131 20.646,40.063 20.845,39.881 C21.069,39.674 21.216,39.34 21.237,38.998 L21.237,38.998 Z M20.106,39.703 C19.96,39.693 19.814,39.641 19.705,39.525 C19.567,39.377 19.509,39.127 19.523,38.883 C19.542,38.637 19.634,38.397 19.79,38.27 C19.915,38.168 20.064,38.135 20.212,38.145 C20.36,38.156 20.505,38.209 20.614,38.326 C20.752,38.473 20.81,38.721 20.796,38.969 C20.776,39.215 20.687,39.455 20.529,39.58 C20.405,39.68 20.255,39.715 20.106,39.703 L20.106,39.703 Z" id="Fill-82" fill="#1A1918"></path>
                        <polyline id="Fill-83" fill="#1A1918" points="22.035 37.797 22.147 39.676 23.22 39.611 23.243 39.998 21.71 40.09 21.573 37.824 22.035 37.797"></polyline>
                        <polyline id="Fill-84" fill="#1A1918" points="23.345 37.707 23.799 37.625 23.981 38.604 24.666 37.463 25.204 37.363 24.509 38.492 25.706 39.58 25.158 39.68 24.265 38.842 24.081 39.143 24.213 39.856 23.759 39.94 23.345 37.707"></polyline>
                        <polyline id="Fill-85" fill="#1A1918" points="26.995 36.785 27.114 37.156 26.006 37.514 26.166 38.006 27.188 37.674 27.309 38.043 26.285 38.375 26.467 38.934 27.624 38.557 27.744 38.928 26.146 39.445 25.446 37.285 26.995 36.785"></polyline>
                        <polyline id="Fill-86" fill="#1A1918" points="27.274 36.68 27.691 36.481 28.058 37.252 28.863 36.869 28.495 36.096 28.913 35.898 29.888 37.949 29.471 38.145 29.029 37.219 28.226 37.602 28.666 38.529 28.249 38.729 27.274 36.68"></polyline>
                        <path d="M30.267,35.049 L31.188,36.512 C31.257,36.629 31.294,36.768 31.267,36.932 C31.236,37.121 31.108,37.275 30.958,37.381 C30.81,37.488 30.642,37.551 30.524,37.559 C30.272,37.572 30.08,37.408 29.962,37.238 L29.825,37.02 L30.217,36.772 L30.339,36.969 C30.384,37.039 30.494,37.231 30.71,37.072 C30.86,36.959 30.836,36.82 30.778,36.729 L29.876,35.295 L30.267,35.049" id="Fill-87" fill="#1A1918"></path>
                        <polyline id="Fill-88" fill="#1A1918" points="31.838 33.828 32.081 34.131 31.172 34.858 31.495 35.262 32.335 34.592 32.577 34.893 31.737 35.566 32.104 36.022 33.054 35.262 33.298 35.566 31.985 36.615 30.568 34.846 31.838 33.828"></polyline>
                        <polyline id="Fill-89" fill="#1A1918" points="32.404 33.268 33.743 34.59 34.497 33.824 34.775 34.096 33.695 35.193 32.079 33.6 32.404 33.268"></polyline>
                        <path d="M35.103,33.717 L35.388,33.354 L34.747,32.856 L35.087,32.422 C35.262,32.225 35.312,31.968 35.16,31.666 C35.077,31.51 34.839,31.298 34.62,31.241 C34.234,31.138 34.022,31.41 33.925,31.537 L33.312,32.327 L35.103,33.717 L35.103,33.717 Z M33.902,32.2 L34.207,31.807 C34.277,31.718 34.374,31.633 34.524,31.684 C34.628,31.718 34.727,31.828 34.763,31.891 C34.802,31.962 34.848,32.094 34.759,32.208 L34.44,32.617 L33.902,32.2 L33.902,32.2 Z" id="Fill-90" fill="#1A1918"></path>
                        <path d="M56.48,19.85 C57.493,21.52 58.355,23.114 58.355,23.114 L58.374,23.114 C58.374,23.114 58.262,20.6 58.262,19.12 L58.262,14.862 L61.056,14.862 L61.056,27.614 L58.206,27.614 L55.186,22.702 C54.474,21.52 53.255,19.269 53.255,19.269 L53.236,19.269 C53.236,19.269 53.367,21.388 53.367,23.432 L53.367,27.614 L50.554,27.614 L50.554,14.862 L53.423,14.862 L56.48,19.85" id="Fill-91" fill="#FFFFFF"></path>
                        <path d="M67.747,25.758 C69.003,25.758 69.716,24.783 69.716,23.151 C69.716,21.482 69.022,20.526 67.747,20.526 C66.471,20.526 65.796,21.5 65.796,23.151 C65.796,24.801 66.49,25.758 67.747,25.758 L67.747,25.758 Z M67.747,18.463 C70.56,18.463 72.491,20.169 72.491,23.188 C72.491,26.208 70.56,27.839 67.747,27.839 C64.934,27.839 63.021,26.208 63.021,23.188 C63.021,20.169 64.934,18.463 67.747,18.463 L67.747,18.463 Z" id="Fill-92" fill="#FFFFFF"></path>
                        <path d="M76.969,18.688 L76.969,19.907 C77.213,19.231 78.226,18.481 79.482,18.481 C79.595,18.481 79.688,18.481 79.801,18.5 L79.801,21.125 C79.501,21.051 79.164,21.013 78.92,21.013 C77.87,21.013 77.345,21.52 77.138,22.27 C77.044,22.608 77.007,23.02 77.007,23.469 L77.007,27.614 L74.269,27.614 L74.269,18.688 L76.969,18.688" id="Fill-93" fill="#FFFFFF"></path>
                        <path d="M86.981,21.407 C86.325,20.807 85.443,20.432 84.562,20.432 C83.943,20.432 83.399,20.638 83.399,21.088 C83.399,21.557 83.812,21.688 84.731,21.875 L86.137,22.176 C87.581,22.476 88.894,23.057 88.894,24.764 C88.894,26.845 87.075,27.839 84.956,27.839 C82.912,27.839 81.187,26.939 80.38,25.833 L82.105,24.445 C82.649,25.196 83.718,25.814 84.956,25.814 C85.874,25.814 86.343,25.514 86.343,25.026 C86.343,24.52 85.8,24.426 85.2,24.313 L83.793,24.032 C82.893,23.864 82.124,23.563 81.58,23.094 C81.093,22.682 80.812,22.101 80.812,21.35 C80.812,19.231 82.855,18.463 84.618,18.463 C86.287,18.463 87.619,19.082 88.519,19.944 L86.981,21.407" id="Fill-94" fill="#FFFFFF"></path>
                        <polyline id="Fill-95" fill="#FFFFFF" points="93.354 14.862 93.354 21.631 96.205 18.688 99.824 18.688 96.187 22.157 100.087 27.614 96.711 27.614 94.217 23.976 93.354 24.783 93.354 27.614 90.617 27.614 90.617 14.862 93.354 14.862"></polyline>
                        <polyline id="Fill-96" fill="#FFFFFF" points="108.82 17.356 108.82 19.87 114.015 19.87 114.015 22.401 108.82 22.401 108.82 27.614 105.989 27.614 105.989 14.862 114.259 14.862 114.259 17.356 108.82 17.356"></polyline>
                        <path d="M119.938,25.758 C121.194,25.758 121.907,24.783 121.907,23.151 C121.907,21.482 121.213,20.526 119.938,20.526 C118.663,20.526 117.988,21.5 117.988,23.151 C117.988,24.801 118.682,25.758 119.938,25.758 L119.938,25.758 Z M119.938,18.463 C122.75,18.463 124.682,20.169 124.682,23.188 C124.682,26.208 122.75,27.839 119.938,27.839 C117.125,27.839 115.212,26.208 115.212,23.188 C115.212,20.169 117.125,18.463 119.938,18.463 L119.938,18.463 Z" id="Fill-97" fill="#FFFFFF"></path>
                        <polygon id="Fill-98" fill="#FFFFFF" points="126.46 27.614 129.198 27.614 129.198 14.862 126.46 14.862"></polygon>
                        <polyline id="Fill-99" fill="#FFFFFF" points="134.429 14.862 134.429 21.631 137.279 18.688 140.898 18.688 137.261 22.157 141.162 27.614 137.787 27.614 135.292 23.976 134.429 24.783 134.429 27.614 131.69 27.614 131.69 14.862 134.429 14.862"></polyline>
                        <path d="M144.027,22.101 L147.759,22.101 C147.703,21.069 147.046,20.357 145.941,20.357 C144.871,20.357 144.064,21.163 144.027,22.101 L144.027,22.101 Z M150.291,25.72 C149.765,26.47 148.472,27.839 146.015,27.839 C143.39,27.839 141.382,26.114 141.382,23.114 C141.382,20.319 143.296,18.463 145.958,18.463 C148.904,18.463 150.404,20.583 150.404,23.301 C150.404,23.489 150.404,23.695 150.384,23.864 L144.027,23.864 C144.121,24.838 144.833,25.682 146.183,25.682 C147.384,25.682 148.097,24.97 148.396,24.445 L150.291,25.72 L150.291,25.72 Z" id="Fill-100" fill="#FFFFFF"></path>
                        <path d="M160.658,27.614 L157.919,27.614 L157.919,23.114 C157.919,21.745 157.863,20.788 156.513,20.788 C155.369,20.788 154.882,21.688 154.882,22.907 L154.882,27.614 L152.144,27.614 L152.144,14.862 L154.882,14.862 L154.882,19.738 C155.312,19.044 156.25,18.463 157.525,18.463 C158.556,18.463 159.345,18.745 159.871,19.325 C160.433,19.963 160.658,20.583 160.658,22.551 L160.658,27.614" id="Fill-101" fill="#FFFFFF"></path>
                        <path d="M162.98,17.544 L165.755,17.544 L165.755,14.862 L162.98,14.862 L162.98,17.544 Z M165.755,18.688 L165.755,28.083 C165.755,28.777 165.679,29.284 165.511,29.696 C165.117,30.67 164.255,31.028 162.585,31.028 C162.042,31.028 161.761,31.008 161.517,30.99 L161.517,28.852 L161.685,28.852 C162.492,28.852 162.98,28.721 162.98,27.67 L162.98,18.688 L165.755,18.688 L165.755,18.688 Z" id="Fill-102" fill="#FFFFFF"></path>
                        <path d="M170.085,22.101 L173.816,22.101 C173.761,21.069 173.105,20.357 171.998,20.357 C170.929,20.357 170.123,21.163 170.085,22.101 L170.085,22.101 Z M176.349,25.72 C175.824,26.47 174.529,27.839 172.072,27.839 C169.447,27.839 167.441,26.114 167.441,23.114 C167.441,20.319 169.353,18.463 172.017,18.463 C174.96,18.463 176.46,20.583 176.46,23.301 C176.46,23.489 176.46,23.695 176.443,23.864 L170.085,23.864 C170.179,24.838 170.892,25.682 172.242,25.682 C173.441,25.682 174.154,24.97 174.455,24.445 L176.349,25.72 L176.349,25.72 Z" id="Fill-103" fill="#FFFFFF"></path>
                        <polygon id="Fill-104" fill="#FFFFFF" points="178.201 27.614 180.939 27.614 180.939 14.862 178.201 14.862"></polygon>
                        <path d="M188.044,25.758 C189.32,25.758 190.07,24.745 190.07,23.151 C190.07,21.52 189.376,20.526 188.044,20.526 C186.826,20.526 186.001,21.594 186.001,23.151 C186.001,24.708 186.826,25.758 188.044,25.758 L188.044,25.758 Z M186.076,26.808 L186.076,30.99 L183.337,30.99 L183.337,18.688 L186.076,18.688 L186.076,19.512 C186.507,19.026 187.464,18.463 188.683,18.463 C191.234,18.463 192.845,20.338 192.845,23.151 C192.845,25.87 191.177,27.839 188.683,27.839 C187.595,27.839 186.658,27.483 186.076,26.808 L186.076,26.808 Z" id="Fill-105" fill="#FFFFFF"></path>
                    </g>
                </g>
            </g>
        </g>
    </g>
</svg>